PathFileType	4	(X/Y/Z) shrug_0kg_1.trc																										
DataRate	CameraRate	NumFrames	NumMarkers	Units	OrigDataRate	OrigDataStartFrame	OrigNumFrames																					
100	100	54	9	mm	100	1	462																					
Frame#	Time	gu			centelbow			EpL			centpxt8			centijc7			ij			ts			aa			ai		
		X1	Y1	Z1	X2	Y2	Z2	X3	Y3	Z3	X4	Y4	Z4	X5	Y5	Z5	X6	Y6	Z6	X7	Y7	Z7	X8	Y8	Z8	X9	Y9	Z9
0	0	-78.716	-10.393	168.006	-104.756	-252.759	207.562	-84.015	-247.002	231.564	-46.816	-153.158	-8.669	-46.816	31.938	-8.669	0	0	0	-138.785	31.076	58.47	-104.813	28.208	172.761	-160.579	-79.952	67.602
1	0.01	-78.639	-10.655	168.129	-104.747	-253.009	207.714	-84.002	-247.255	231.714	-46.816	-153.158	-8.669	-46.816	31.938	-8.669	0	0	0	-138.772	30.928	58.348	-104.775	28.067	172.632	-160.57	-80.098	67.492
2	0.02	-78.623	-10.898	168.192	-104.831	-253.235	207.819	-84.083	-247.486	231.816	-46.816	-153.158	-8.669	-46.816	31.938	-8.669	0	0	0	-138.721	30.831	58.168	-104.703	27.97	172.446	-160.529	-80.193	67.321
3	0.03	-78.77	-10.93	168.266	-105.032	-253.259	207.905	-84.286	-247.512	231.905	-46.816	-153.158	-8.669	-46.816	31.938	-8.669	0	0	0	-138.626	30.798	58.119	-104.615	27.948	172.399	-160.434	-80.225	67.28
4	0.04	-78.964	-10.735	168.412	-105.174	-253.072	208.036	-84.435	-247.321	232.042	-46.816	-153.158	-8.669	-46.816	31.938	-8.669	0	0	0	-138.578	30.773	58.257	-104.593	27.947	172.545	-160.367	-80.253	67.431
5	0.05	-79.034	-10.466	168.579	-105.129	-252.816	208.202	-84.395	-247.054	232.209	-46.816	-153.158	-8.669	-46.816	31.938	-8.669	0	0	0	-138.682	30.747	58.447	-104.72	27.948	172.743	-160.447	-80.282	67.634
6	0.06	-78.959	-10.304	168.653	-104.966	-252.661	208.289	-84.231	-246.892	232.293	-46.816	-153.158	-8.669	-46.816	31.938	-8.669	0	0	0	-138.909	30.771	58.562	-104.956	27.983	172.86	-160.665	-80.26	67.755
7	0.07	-78.898	-10.283	168.57	-104.864	-252.644	208.207	-84.121	-246.873	232.205	-46.816	-153.158	-8.669	-46.816	31.938	-8.669	0	0	0	-139.085	30.851	58.584	-105.117	28.066	172.879	-160.849	-80.177	67.786
8	0.08	-78.997	-10.321	168.38	-104.935	-252.685	208.022	-84.183	-246.914	232.011	-46.816	-153.158	-8.669	-46.816	31.938	-8.669	0	0	0	-139.124	30.896	58.538	-105.116	28.122	172.821	-160.904	-80.127	67.764
9	0.09	-79.179	-10.388	168.202	-105.094	-252.75	207.867	-84.33	-246.977	231.845	-46.816	-153.158	-8.669	-46.816	31.938	-8.669	0	0	0	-139.119	30.863	58.465	-105.066	28.105	172.735	-160.911	-80.156	67.72
10	0.1	-79.297	-10.466	168.107	-105.189	-252.827	207.794	-84.409	-247.054	231.758	-46.816	-153.158	-8.669	-46.816	31.938	-8.669	0	0	0	-139.149	30.834	58.42	-105.057	28.085	172.679	-160.939	-80.183	67.691
11	0.11	-79.333	-10.493	168.111	-105.183	-252.858	207.798	-84.388	-247.086	231.749	-46.816	-153.158	-8.669	-46.816	31.938	-8.669	0	0	0	-139.157	30.811	58.45	-105.042	28.065	172.702	-160.944	-80.206	67.728
12	0.12	-79.302	-10.409	168.203	-105.089	-252.785	207.87	-84.286	-247.011	231.814	-46.816	-153.158	-8.669	-46.816	31.938	-8.669	0	0	0	-139.09	30.722	58.58	-104.966	27.985	172.829	-160.89	-80.292	67.872
13	0.13	-79.234	-10.215	168.323	-104.936	-252.603	207.967	-84.133	-246.825	231.91	-46.816	-153.158	-8.669	-46.816	31.938	-8.669	0	0	0	-138.995	30.652	58.754	-104.866	27.935	173.002	-160.81	-80.357	68.071
14	0.14	-79.2	-9.978	168.403	-104.797	-252.38	208.031	-83.998	-246.594	231.976	-46.816	-153.158	-8.669	-46.816	31.938	-8.669	0	0	0	-138.924	30.733	58.842	-104.779	28.042	173.086	-160.728	-80.276	68.186
15	0.15	-79.225	-9.813	168.436	-104.731	-252.228	208.047	-83.934	-246.435	231.993	-46.816	-153.158	-8.669	-46.816	31.938	-8.669	0	0	0	-138.904	30.884	58.774	-104.727	28.217	173.009	-160.678	-80.128	68.138
16	0.16	-79.307	-9.832	168.442	-104.784	-252.254	208.025	-83.988	-246.461	231.971	-46.816	-153.158	-8.669	-46.816	31.938	-8.669	0	0	0	-139.002	30.897	58.648	-104.789	28.242	172.873	-160.769	-80.115	68.029
17	0.17	-79.402	-9.993	168.412	-104.897	-252.419	207.957	-84.102	-246.632	231.904	-46.816	-153.158	-8.669	-46.816	31.938	-8.669	0	0	0	-139.199	30.752	58.622	-104.957	28.099	172.838	-160.989	-80.255	68.018
18	0.18	-79.412	-10.131	168.355	-104.932	-252.56	207.865	-84.135	-246.779	231.812	-46.816	-153.158	-8.669	-46.816	31.938	-8.669	0	0	0	-139.326	30.642	58.706	-105.069	27.993	172.917	-161.135	-80.36	68.115
19	0.19	-79.366	-10.162	168.31	-104.891	-252.592	207.813	-84.09	-246.812	231.757	-46.816	-153.158	-8.669	-46.816	31.938	-8.669	0	0	0	-139.309	30.659	58.738	-105.035	28.019	172.944	-161.115	-80.343	68.159
20	0.2	-79.372	-10.068	168.291	-104.864	-252.499	207.808	-84.061	-246.717	231.749	-46.816	-153.158	-8.669	-46.816	31.938	-8.669	0	0	0	-139.263	30.72	58.607	-104.959	28.085	172.805	-161.054	-80.284	68.036
21	0.21	-79.443	-9.86	168.257	-104.862	-252.3	207.766	-84.06	-246.512	231.708	-46.816	-153.158	-8.669	-46.816	31.938	-8.669	0	0	0	-139.293	30.767	58.411	-104.961	28.129	172.601	-161.071	-80.24	67.839
22	0.22	-79.519	-9.647	168.186	-104.864	-252.101	207.659	-84.064	-246.31	231.601	-46.816	-153.158	-8.669	-46.816	31.938	-8.669	0	0	0	-139.372	30.816	58.292	-105.031	28.173	172.479	-161.138	-80.193	67.712
23	0.23	-79.561	-9.539	168.12	-104.868	-252.002	207.559	-84.069	-246.211	231.502	-46.816	-153.158	-8.669	-46.816	31.938	-8.669	0	0	0	-139.428	30.863	58.266	-105.093	28.218	172.454	-161.184	-80.149	67.681
24	0.24	-79.574	-9.529	168.088	-104.877	-251.994	207.52	-84.078	-246.204	231.463	-46.816	-153.158	-8.669	-46.816	31.938	-8.669	0	0	0	-139.443	30.882	58.276	-105.114	28.237	172.466	-161.198	-80.13	67.689
25	0.25	-79.582	-9.565	168.096	-104.892	-252.027	207.545	-84.093	-246.235	231.488	-46.816	-153.158	-8.669	-46.816	31.938	-8.669	0	0	0	-139.44	30.864	58.285	-105.113	28.215	172.476	-161.202	-80.148	67.696
26	0.26	-79.564	-9.621	168.181	-104.883	-252.078	207.654	-84.087	-246.284	231.599	-46.816	-153.158	-8.669	-46.816	31.938	-8.669	0	0	0	-139.424	30.813	58.294	-105.095	28.161	172.483	-161.192	-80.197	67.703
27	0.27	-79.47	-9.678	168.335	-104.812	-252.131	207.813	-84.023	-246.337	231.765	-46.816	-153.158	-8.669	-46.816	31.938	-8.669	0	0	0	-139.394	30.776	58.307	-105.056	28.124	172.494	-161.158	-80.235	67.718
28	0.28	-79.338	-9.725	168.431	-104.723	-252.176	207.898	-83.94	-246.385	231.855	-46.816	-153.158	-8.669	-46.816	31.938	-8.669	0	0	0	-139.387	30.791	58.316	-105.034	28.144	172.499	-161.138	-80.222	67.73
29	0.29	-79.275	-9.76	168.389	-104.698	-252.208	207.844	-83.917	-246.421	231.804	-46.816	-153.158	-8.669	-46.816	31.938	-8.669	0	0	0	-139.425	30.835	58.311	-105.065	28.189	172.492	-161.171	-80.179	67.727
30	0.3	-79.288	-9.758	168.315	-104.728	-252.207	207.758	-83.949	-246.422	231.72	-46.816	-153.158	-8.669	-46.816	31.938	-8.669	0	0	0	-139.45	30.862	58.302	-105.095	28.215	172.485	-161.209	-80.149	67.719
31	0.31	-79.281	-9.741	168.298	-104.728	-252.193	207.717	-83.953	-246.41	231.683	-46.816	-153.158	-8.669	-46.816	31.938	-8.669	0	0	0	-139.396	30.871	58.305	-105.053	28.221	172.491	-161.179	-80.135	67.725
32	0.32	-79.206	-9.765	168.257	-104.657	-252.222	207.641	-83.885	-246.441	231.611	-46.816	-153.158	-8.669	-46.816	31.938	-8.669	0	0	0	-139.306	30.858	58.318	-104.969	28.205	172.506	-161.107	-80.145	67.739
33	0.33	-79.121	-9.837	168.139	-104.568	-252.299	207.493	-83.795	-246.522	231.462	-46.816	-153.158	-8.669	-46.816	31.938	-8.669	0	0	0	-139.274	30.783	58.325	-104.941	28.128	172.514	-161.081	-80.219	67.745
34	0.34	-79.108	-9.931	168.025	-104.528	-252.398	207.37	-83.754	-246.619	231.339	-46.816	-153.158	-8.669	-46.816	31.938	-8.669	0	0	0	-139.308	30.616	58.324	-104.977	27.959	172.513	-161.113	-80.387	67.741
35	0.35	-79.122	-9.998	168	-104.489	-252.47	207.349	-83.718	-246.686	231.319	-46.816	-153.158	-8.669	-46.816	31.938	-8.669	0	0	0	-139.297	30.408	58.334	-104.963	27.75	172.522	-161.1	-80.595	67.75
36	0.36	-79.072	-9.973	168.061	-104.394	-252.45	207.405	-83.63	-246.662	231.38	-46.816	-153.158	-8.669	-46.816	31.938	-8.669	0	0	0	-139.186	30.275	58.377	-104.852	27.616	172.565	-160.988	-80.728	67.792
37	0.37	-79.021	-9.885	168.117	-104.354	-252.363	207.45	-83.598	-246.575	231.432	-46.816	-153.158	-8.669	-46.816	31.938	-8.669	0	0	0	-139.098	30.297	58.445	-104.778	27.643	172.637	-160.899	-80.706	67.861
38	0.38	-79.084	-9.839	168.061	-104.478	-252.313	207.381	-83.727	-246.529	231.367	-46.816	-153.158	-8.669	-46.816	31.938	-8.669	0	0	0	-139.175	30.479	58.498	-104.867	27.834	172.694	-160.962	-80.526	67.916
39	0.39	-79.205	-9.829	167.938	-104.646	-252.304	207.223	-83.897	-246.527	231.213	-46.816	-153.158	-8.669	-46.816	31.938	-8.669	0	0	0	-139.367	30.744	58.507	-105.054	28.108	172.702	-161.132	-80.265	67.928
40	0.4	-79.255	-9.811	167.937	-104.696	-252.295	207.162	-83.952	-246.523	231.158	-46.816	-153.158	-8.669	-46.816	31.938	-8.669	0	0	0	-139.479	30.94	58.502	-105.151	28.306	172.692	-161.228	-80.073	67.923
41	0.41	-79.237	-9.845	168.107	-104.668	-252.34	207.269	-83.936	-246.571	231.276	-46.816	-153.158	-8.669	-46.816	31.938	-8.669	0	0	0	-139.422	30.979	58.509	-105.08	28.345	172.696	-161.163	-80.035	67.931
42	0.42	-79.22	-9.934	168.246	-104.661	-252.435	207.371	-83.94	-246.667	231.388	-46.816	-153.158	-8.669	-46.816	31.938	-8.669	0	0	0	-139.316	30.917	58.484	-104.959	28.289	172.666	-161.054	-80.097	67.914
43	0.43	-79.21	-9.988	168.169	-104.663	-252.489	207.283	-83.951	-246.721	231.307	-46.816	-153.158	-8.669	-46.816	31.938	-8.669	0	0	0	-139.305	30.815	58.386	-104.927	28.195	172.562	-161.049	-80.197	67.83
44	0.44	-79.188	-9.992	167.929	-104.636	-252.495	207.03	-83.93	-246.727	231.06	-46.816	-153.158	-8.669	-46.816	31.938	-8.669	0	0	0	-139.389	30.729	58.299	-104.995	28.113	172.47	-161.14	-80.281	67.752
45	0.45	-79.128	-9.969	167.719	-104.558	-252.479	206.795	-83.859	-246.71	230.83	-46.816	-153.158	-8.669	-46.816	31.938	-8.669	0	0	0	-139.48	30.73	58.307	-105.082	28.12	172.477	-161.216	-80.283	67.764
46	0.46	-79.028	-9.934	167.646	-104.419	-252.452	206.692	-83.728	-246.681	230.734	-46.816	-153.158	-8.669	-46.816	31.938	-8.669	0	0	0	-139.524	30.803	58.33	-105.128	28.207	172.5	-161.218	-80.218	67.786
47	0.47	-78.962	-9.937	167.646	-104.308	-252.465	206.661	-83.626	-246.692	230.709	-46.816	-153.158	-8.669	-46.816	31.938	-8.669	0	0	0	-139.53	30.889	58.289	-105.135	28.302	172.461	-161.185	-80.14	67.742
48	0.48	-78.997	-9.993	167.59	-104.337	-252.528	206.564	-83.659	-246.757	230.617	-46.816	-153.158	-8.669	-46.816	31.938	-8.669	0	0	0	-139.492	30.985	58.25	-105.103	28.393	172.423	-161.138	-80.046	67.695
49	0.49	-79.066	-10.026	167.442	-104.435	-252.566	206.365	-83.755	-246.803	230.418	-46.816	-153.158	-8.669	-46.816	31.938	-8.669	0	0	0	-139.35	31.078	58.26	-104.97	28.475	172.435	-161.006	-79.952	67.694
50	0.5	-79.046	-9.982	167.294	-104.417	-252.529	206.172	-83.737	-246.771	230.227	-46.816	-153.158	-8.669	-46.816	31.938	-8.669	0	0	0	-139.117	31.101	58.266	-104.758	28.491	172.447	-160.782	-79.929	67.691
51	0.51	-78.925	-9.893	167.238	-104.266	-252.446	206.099	-83.59	-246.686	230.156	-46.816	-153.158	-8.669	-46.816	31.938	-8.669	0	0	0	-138.947	31.011	58.225	-104.622	28.403	172.418	-160.622	-80.016	67.649
52	0.52	-78.825	-9.808	167.267	-104.15	-252.363	206.129	-83.478	-246.601	230.189	-46.816	-153.158	-8.669	-46.816	31.938	-8.669	0	0	0	-138.923	30.879	58.172	-104.626	28.278	172.373	-160.617	-80.144	67.602
53	0.53	-78.843	-9.723	167.337	-104.177	-252.277	206.199	-83.505	-246.515	230.26	-46.816	-153.158	-8.669	-46.816	31.938	-8.669	0	0	0	-138.993	30.853	58.157	-104.702	28.26	172.36	-160.702	-80.166	67.598
